# xmcd CD database file
#
# Track frame offsets:
#	150
#	17275
#	33767
#	49332
#	67476
#
# Disc length: 1126 seconds
#
# Revision: 0
# Processed by: cddbd v1.5.1PL2 Copyright (c) Steve Scherf et al.
# Submitted via: CDex 1.51
#
DISCID=3c046405
DTITLE=Shannon Curfman - Take It Like a Man
DYEAR=2006
DGENRE=Blues
TTITLE0=Stone Cold Bitch
TTITLE1=Do Me
TTITLE2=Little Things
TTITLE3=Tangled
TTITLE4=Sex Type Thing
EXTD=YEAR: 2006
EXTT0=
EXTT1=
EXTT2=
EXTT3=
EXTT4=
PLAYORDER=
